0
SECTION
2
HEADER
9
$INSUNITS
70
1
9
$ACADVER
1
AC1014
9
$HANDSEED
5
FFFF
0
ENDSEC
0
SECTION
2
TABLES
0
TABLE
2
VPORT
5
8
100
AcDbSymbolTable
0
ENDTAB
0
TABLE
2
LTYPE
5
5
100
AcDbSymbolTable
0
LTYPE
5
14
100
AcDbSymbolTableRecord
100
AcDbLinetypeTableRecord
2
BYBLOCK
70
0
0
LTYPE
5
15
100
AcDbSymbolTableRecord
100
AcDbLinetypeTableRecord
2
BYLAYER
70
0
0
ENDTAB
0
TABLE
2
LAYER
5
2
100
AcDbSymbolTable
70
2
0
LAYER
5
50
100
AcDbSymbolTableRecord
100
AcDbLayerTableRecord
2
0
70
0
6
CONTINUOUS
0
ENDTAB
0
TABLE
2
STYLE
5
3
100
AcDbSymbolTable
70
1
0
STYLE
5
11
100
AcDbSymbolTableRecord
100
AcDbTextStyleTableRecord
2
STANDARD
70
0
0
ENDTAB
0
TABLE
2
VIEW
5
6
100
AcDbSymbolTable
70
0
0
ENDTAB
0
TABLE
2
UCS
5
7
100
AcDbSymbolTable
70
0
0
ENDTAB
0
TABLE
2
APPID
5
9
100
AcDbSymbolTable
70
2
0
APPID
5
12
100
AcDbSymbolTableRecord
100
AcDbRegAppTableRecord
2
ACAD
70
0
0
ENDTAB
0
TABLE
2
DIMSTYLE
5
A
100
AcDbSymbolTable
70
1
0
ENDTAB
0
TABLE
2
BLOCK_RECORD
5
1
100
AcDbSymbolTable
70
1
0
BLOCK_RECORD
5
1F
100
AcDbSymbolTableRecord
100
AcDbBlockTableRecord
2
*MODEL_SPACE
0
BLOCK_RECORD
5
1B
100
AcDbSymbolTableRecord
100
AcDbBlockTableRecord
2
*PAPER_SPACE
0
ENDTAB
0
ENDSEC
0
SECTION
2
BLOCKS
0
BLOCK
5
20
100
AcDbEntity
100
AcDbBlockBegin
2
*MODEL_SPACE
0
ENDBLK
5
21
100
AcDbEntity
100
AcDbBlockEnd
0
BLOCK
5
1C
100
AcDbEntity
100
AcDbBlockBegin
2
*PAPER_SPACE
0
ENDBLK
5
1D
100
AcDbEntity
100
AcDbBlockEnd
0
ENDSEC
0
SECTION
2
ENTITIES
0
LINE
5
100
100
AcDbEntity
8
0
100
AcDbLine
10
0
20
0
30
0
11
8.5
21
0
31
0
0
LINE
5
101
100
AcDbEntity
8
0
100
AcDbLine
10
8.5
20
0
30
0
11
8.4999999999999982
21
11
31
0
0
LINE
5
102
100
AcDbEntity
8
0
100
AcDbLine
10
0
20
11.000000351057277
30
0
11
0
21
3.5105727738616803e-07
31
0
0
LINE
5
103
100
AcDbEntity
8
0
100
AcDbLine
10
0.24999999999999997
20
11.000000351057277
30
0
11
0.24999999999999997
21
10.500000351057277
31
0
0
LINE
5
104
100
AcDbEntity
8
0
100
AcDbLine
10
0.24999999999999997
20
10.500000351057277
30
0
11
0
21
10.500000351057277
31
0
0
LINE
5
105
100
AcDbEntity
8
0
100
AcDbLine
10
0
20
11.000000351057277
30
0
11
8.4999999999999982
21
11.000000351057277
31
0
0
LWPOLYLINE
5
106
100
AcDbEntity
8
0
100
AcDbPolyline
90
8
70
1
43
0.0
10
4.25
20
10.500000351057277
10
4.25
20
5.5000003510572775
10
8.2499999999999982
20
5.5000003510572784
10
8.25
20
0.50000035105727925
10
4.25
20
0.50000035105727858
10
4.25
20
5.5000003510572775
10
0.24999999999999997
20
5.5000003510572775
10
0.24999999999999997
20
10.500000351057277
0
LINE
5
107
100
AcDbEntity
8
0
100
AcDbLine
10
4.25
20
10.500000351057277
30
0
11
8.2499999999999982
21
10.500000351057277
31
0
0
LINE
5
108
100
AcDbEntity
8
0
100
AcDbLine
10
8.2499999999999982
20
10.500000351057277
30
0
11
8.2499999999999982
21
5.5000003510572784
31
0
0
LINE
5
109
100
AcDbEntity
8
0
100
AcDbLine
10
0.24999999999999997
20
5.5000003510572775
30
0
11
0.24999999999999997
21
0.50000035105727858
31
0
0
LINE
5
110
100
AcDbEntity
8
0
100
AcDbLine
10
0.24999999999999997
20
0.50000035105727858
30
0
11
4.25
21
0.50000035105727858
31
0
0
LINE
5
111
100
AcDbEntity
8
0
100
AcDbLine
10
0.75
20
10.500000351057277
30
0
11
0.75
21
9.0000003510572775
31
0
0
LINE
5
112
100
AcDbEntity
8
0
100
AcDbLine
10
3.75
20
9.0000003510572775
30
0
11
3.75
21
6.0000003510572775
31
0
0
LINE
5
113
100
AcDbEntity
8
0
100
AcDbLine
10
3.75
20
6.0000003510572775
30
0
11
0.75
21
6.0000003510572775
31
0
0
LINE
5
114
100
AcDbEntity
8
0
100
AcDbLine
10
0.75
20
9.0000003510572775
30
0
11
0.25000000000000006
21
9.0000003510572775
31
0
0
LINE
5
115
100
AcDbEntity
8
0
100
AcDbLine
10
0.75
20
6.0000003510572775
30
0
11
0.75
21
5.5000003510572775
31
0
0
LINE
5
116
100
AcDbEntity
8
0
100
AcDbLine
10
0.75
20
9.0000003510572775
30
0
11
0.75
21
8.4000003510572778
31
0
0
LINE
5
117
100
AcDbEntity
8
0
100
AcDbLine
10
0.75
20
8.4000003510572778
30
0
11
3.75
21
8.4000003510572778
31
0
0
LINE
5
118
100
AcDbEntity
8
0
100
AcDbLine
10
0.75
20
8.4000003510572778
30
0
11
0.75
21
7.8000003510572773
31
0
0
LINE
5
119
100
AcDbEntity
8
0
100
AcDbLine
10
0.75
20
7.8000003510572773
30
0
11
0.75
21
7.2000003510572768
31
0
0
LINE
5
120
100
AcDbEntity
8
0
100
AcDbLine
10
0.75
20
7.8000003510572773
30
0
11
3.75
21
7.8000003510572773
31
0
0
LINE
5
121
100
AcDbEntity
8
0
100
AcDbLine
10
0.75
20
7.2000003510572768
30
0
11
3.75
21
7.2000003510572768
31
0
0
LINE
5
122
100
AcDbEntity
8
0
100
AcDbLine
10
0.75
20
7.2000003510572768
30
0
11
0.75
21
6.6000003510572762
31
0
0
LINE
5
123
100
AcDbEntity
8
0
100
AcDbLine
10
0.75
20
6.6000003510572762
30
0
11
0.75
21
6.0000003510572766
31
0
0
LINE
5
124
100
AcDbEntity
8
0
100
AcDbLine
10
0.75
20
6.6000003510572762
30
0
11
3.75
21
6.6000003510572762
31
0
0
LINE
5
125
100
AcDbEntity
8
0
100
AcDbLine
10
0.75
20
9.0000003510572775
30
0
11
1.3500000000000001
21
9.0000003510572775
31
0
0
LINE
5
126
100
AcDbEntity
8
0
100
AcDbLine
10
1.3500000000000001
20
9.0000003510572775
30
0
11
1.95
21
9.0000003510572775
31
0
0
LINE
5
127
100
AcDbEntity
8
0
100
AcDbLine
10
1.95
20
9.0000003510572775
30
0
11
2.5499999999999998
21
9.0000003510572775
31
0
0
LINE
5
128
100
AcDbEntity
8
0
100
AcDbLine
10
2.5499999999999998
20
9.0000003510572775
30
0
11
3.1500000000000004
21
9.0000003510572775
31
0
0
LINE
5
129
100
AcDbEntity
8
0
100
AcDbLine
10
3.1500000000000004
20
9.0000003510572775
30
0
11
3.7500000000000004
21
9.0000003510572775
31
0
0
LINE
5
130
100
AcDbEntity
8
0
100
AcDbLine
10
1.3500000000000001
20
9.0000003510572775
30
0
11
1.3500000000000001
21
6.0000003510572775
31
0
0
LINE
5
131
100
AcDbEntity
8
0
100
AcDbLine
10
1.95
20
9.0000003510572775
30
0
11
1.95
21
6.0000003510572775
31
0
0
LINE
5
132
100
AcDbEntity
8
0
100
AcDbLine
10
2.5499999999999998
20
9.0000003510572775
30
0
11
2.5499999999999998
21
6.0000003510572784
31
0
0
LINE
5
133
100
AcDbEntity
8
0
100
AcDbLine
10
3.1500000000000004
20
9.0000003510572775
30
0
11
3.1500000000000004
21
6.0000003510572775
31
0
0
ENDSEC
0
SECTION
2
OBJECTS
0
DICTIONARY
5
C
100
AcDbDictionary
3
ACAD_GROUP
350
D
3
ACAD_MLINESTYLE
350
17
0
DICTIONARY
5
D
100
AcDbDictionary
0
DICTIONARY
5
1A
330
C
100
AcDbDictionary
0
DICTIONARY
5
17
100
AcDbDictionary
0
ENDSEC
0
EOF
